<?xml version="1.0" standalone="no"?>
<!DOCTYPE svg PUBLIC "-//W3C//DTD SVG 1.1//EN" "http://www.w3.org/Graphics/SVG/1.1/DTD/svg11.dtd" >
<svg xmlns="http://www.w3.org/2000/svg">
<metadata></metadata>
<defs>
<font id="thesans_8-extraboldplain" horiz-adv-x="1063" >
<font-face units-per-em="2048" ascent="1638" descent="-410" />
<missing-glyph horiz-adv-x="446" />
<glyph horiz-adv-x="0" />
<glyph unicode="&#xd;" horiz-adv-x="0" />
<glyph unicode=" "  horiz-adv-x="446" />
<glyph unicode="&#x09;" horiz-adv-x="446" />
<glyph unicode="&#xa0;" horiz-adv-x="446" />
<glyph unicode="!" horiz-adv-x="627" d="M127 152q0 76 53 127t131 51q51 0 93.5 -23.5t67 -65t24.5 -89.5q0 -75 -53.5 -126t-131.5 -51q-77 0 -130.5 51t-53.5 126zM131 1481h367l-45 -1069h-273z" />
<glyph unicode="&#x22;" horiz-adv-x="881" d="M78 1546h309l-37 -553h-233zM494 1546h309l-37 -553h-234z" />
<glyph unicode="#" horiz-adv-x="1440" d="M51 342v229h273l28 260h-241v232h266l31 319h272l-33 -319h219l33 319h272l-32 -319h250v-232h-275l-29 -260h242v-229h-264l-37 -342h-272l37 342h-220l-36 -342h-271l35 342h-248zM596 571h217l29 260h-219z" />
<glyph unicode="$" horiz-adv-x="1018" d="M80 893q0 90 39.5 167.5t112 132t165.5 75.5v198h219v-182q119 -3 207 -24l-22 -263q-118 33 -226 33q-86 0 -127.5 -29t-41.5 -79q0 -56 90 -97.5t192.5 -84t175 -124.5t72.5 -227q0 -94 -41 -174.5t-117.5 -138.5t-177.5 -84v-240h-221v223q-118 3 -242 25l21 279 q119 -41 254 -41q192 0 192 122q0 63 -97 106.5t-192.5 84t-165 118.5t-69.5 224z" />
<glyph unicode="%" horiz-adv-x="1686" d="M66 1063q0 169 104.5 271t251.5 102q100 0 178 -37t123 -114.5t45 -194.5q0 -85 -29.5 -156.5t-80.5 -121.5t-116 -75.5t-136 -25.5q-103 0 -180 41t-118.5 121t-41.5 190zM221 104l1008 1336l225 -162l-1005 -1335zM324 1073q0 -84 23.5 -116.5t66.5 -32.5t70.5 39.5 t27.5 111.5q0 84 -23 116t-71 32q-40 0 -67 -39.5t-27 -110.5zM913 299q0 110 48.5 196t130 131.5t178.5 45.5q101 0 178.5 -37t122.5 -115t45 -194q0 -85 -29.5 -156.5t-80.5 -121t-115.5 -75.5t-137.5 -26q-103 0 -179.5 41t-118.5 121t-42 190zM1171 309q0 -149 93 -149 q42 0 69 39.5t27 111.5q0 84 -22 116t-70 32q-42 0 -69.5 -39.5t-27.5 -110.5z" />
<glyph unicode="&#x26;" horiz-adv-x="1634" d="M86 387q0 120 63 221t179 193q-88 105 -126 186t-38 172q0 97 51.5 180.5t151 132t233.5 48.5q185 0 287 -85.5t102 -234.5q0 -71 -26 -137t-78.5 -129.5t-132.5 -126.5q62 -57 145.5 -128.5t173.5 -139.5v-2q38 63 62.5 132t36.5 142t12 143h311q0 -73 -12 -156 t-34.5 -155.5t-57.5 -143.5t-80 -132q162 -119 258 -183l-207 -237q-180 125 -275 196q-101 -75 -235.5 -122.5t-288.5 -47.5q-159 0 -266.5 56.5t-158 150t-50.5 207.5zM410 424q0 -47 24 -88.5t70.5 -67.5t107.5 -26q135 0 242 73q-200 160 -340 297q-104 -94 -104 -188z M473 1176q0 -81 94 -193q58 52 86.5 98t28.5 99q0 47 -26.5 75.5t-75.5 28.5q-47 0 -77 -30t-30 -78z" />
<glyph unicode="'" horiz-adv-x="465" d="M78 1546h309l-37 -553h-233z" />
<glyph unicode="(" horiz-adv-x="631" d="M82 584q0 170 30 339t92.5 333t153.5 313h293q-82 -139 -141 -298t-89 -328t-30 -349q0 -137 16.5 -264t53.5 -261t83.5 -244t112.5 -220h-301q-72 118 -123 237t-84.5 241.5t-50 249t-16.5 251.5z" />
<glyph unicode=")" horiz-adv-x="631" d="M-23 -395q130 213 197.5 461.5t67.5 521.5q0 135 -17.5 266t-50 251.5t-82.5 240t-112 223.5h299q89 -148 150 -310.5t90.5 -329t29.5 -339.5q0 -174 -30 -344t-92 -331.5t-153 -309.5h-297z" />
<glyph unicode="*" horiz-adv-x="801" d="M53 1083l207 74l-207 76l109 186l168 -141l-41 217h219l-39 -217l168 141l108 -186l-206 -76l206 -74l-110 -188l-166 141l39 -215h-219l39 215l-168 -139z" />
<glyph unicode="+" horiz-adv-x="1163" d="M45 397v262h387v394h297v-394h387v-262h-387v-397h-297v397h-387z" />
<glyph unicode="," horiz-adv-x="567" d="M59 -266q125 134 125 221q0 60 -45 106q-41 49 -41 113q0 71 49.5 124.5t135.5 53.5q85 0 139.5 -65t54.5 -168q0 -70 -30 -153.5t-95 -171.5t-166 -173z" />
<glyph unicode="-" horiz-adv-x="690" d="M86 399v250h516v-250h-516z" />
<glyph unicode="." horiz-adv-x="567" d="M90 166q0 51 26 96.5t70.5 71.5t96.5 26q51 0 96.5 -26t71.5 -71.5t26 -96.5q0 -52 -26 -96.5t-71.5 -70.5t-96.5 -26q-52 0 -96.5 26t-70.5 70.5t-26 96.5z" />
<glyph unicode="/" horiz-adv-x="877" d="M25 0l528 1382h311l-526 -1382h-313z" />
<glyph unicode="0" horiz-adv-x="1239" d="M72 510q0 171 77 299.5t205.5 197t278.5 68.5q147 0 252 -46.5t166 -123t88.5 -172.5t27.5 -198q0 -170 -76.5 -298.5t-207 -196t-283.5 -67.5q-234 0 -381 127.5t-147 409.5zM383 530q0 -130 60 -206t178 -76q64 0 118 33t85.5 98t31.5 153q0 127 -60.5 202t-172.5 75 q-102 0 -171 -74.5t-69 -204.5z" />
<glyph unicode="1" horiz-adv-x="707" d="M18 934l322 119h238v-1053h-318v756l-194 -80z" />
<glyph unicode="2" horiz-adv-x="985" d="M80 0v254l158 123q130 100 181 143.5t78 82t27 81.5q0 56 -39.5 88.5t-113.5 32.5q-38 0 -81.5 -9.5t-84.5 -26.5t-68 -34l-45 264q43 19 104 37t126 27.5t124 9.5q137 0 232.5 -40.5t144.5 -113.5t49 -176q0 -108 -65.5 -203.5t-190.5 -189.5l-108 -80v-4q119 8 399 8 v-274h-827z" />
<glyph unicode="3" horiz-adv-x="934" d="M57 -348l27 268q95 -31 192 -31q80 0 136 22.5t85 64t29 96.5q0 84 -72.5 126t-201.5 42q-67 0 -125 -9v250q195 0 287 48.5t92 140.5q0 63 -45.5 99t-130.5 36q-57 0 -116.5 -15.5t-107.5 -41.5l-30 258q152 59 319 59q140 0 240 -44t149.5 -120.5t49.5 -169.5 q0 -103 -57.5 -184t-153.5 -127v-2q76 -19 131 -65.5t82.5 -111.5t27.5 -141q0 -129 -69 -238.5t-203.5 -174t-321.5 -64.5q-115 0 -213 29z" />
<glyph unicode="4" horiz-adv-x="1149" d="M35 252l495 807h392v-778h196v-281h-196v-365h-308v365h-530zM334 276q67 5 287 5v477h-3z" />
<glyph unicode="5" horiz-adv-x="944" d="M72 -362l28 276q75 -14 158 -14q137 0 210 54t73 142q0 89 -77.5 139t-223.5 50q-77 0 -127 -9v777h721v-308l-428 5v-213q142 0 247.5 -48.5t162 -140.5t56.5 -211q0 -148 -81 -265.5t-224 -183t-323 -65.5q-87 0 -172 15z" />
<glyph unicode="6" horiz-adv-x="1190" d="M86 565q0 199 54 361.5t155 275.5t243 172.5t320 59.5q55 0 133 -4v-277q-98 12 -151 12q-152 0 -255 -73.5t-149 -210.5q-6 -22 -9.5 -33.5t-6.5 -22.5l2 -2q28 28 71 50t93.5 33.5t107.5 11.5q98 0 178.5 -30.5t137 -89t85.5 -139.5t29 -182q0 -108 -39.5 -202 t-111.5 -161.5t-171 -104t-218 -36.5q-228 0 -363 153.5t-135 438.5zM434 463q0 -97 46.5 -158t131.5 -61q87 0 135 55.5t48 146.5q0 100 -46 151.5t-131 51.5q-86 0 -135 -54t-49 -132z" />
<glyph unicode="7" horiz-adv-x="938" d="M41 745v308h856v-262q-109 -260 -198.5 -553t-149.5 -603h-348q136 631 342 1117q-16 0 -74 -1.5t-126 -3t-124 -2t-178 -0.5z" />
<glyph unicode="8" horiz-adv-x="1147" d="M72 354q0 122 64 203.5t167 151.5l-2 2q-103 62 -159 144.5t-56 191.5q0 121 64 212.5t176.5 141t253.5 49.5q144 0 250.5 -43.5t163.5 -124t57 -186.5q0 -105 -55 -185.5t-165 -156.5q110 -64 177 -150t67 -209q0 -133 -70 -228.5t-189.5 -144.5t-266.5 -49 q-143 0 -252.5 47t-167 133.5t-57.5 200.5zM401 387q0 -67 47 -108t125 -41q77 0 123.5 39.5t46.5 101.5t-49.5 110.5t-140.5 94.5h-2q-67 -43 -108.5 -92t-41.5 -105zM414 1061q0 -55 41 -95t129 -89h2q76 51 109.5 94t33.5 96q0 34 -18 63t-54.5 46.5t-85.5 17.5 q-73 0 -115 -37t-42 -96z" />
<glyph unicode="9" horiz-adv-x="1190" d="M63 557q0 110 39 205t110.5 164t167.5 106t212 37t207.5 -35t160.5 -109t105.5 -188t36.5 -268q0 -193 -47.5 -347t-144 -266t-247.5 -172.5t-350 -60.5q-73 0 -143 15v282q70 -24 154 -24q108 0 187.5 27t133 83t82.5 148q10 45 16 65h-2q-94 -94 -262 -94 q-190 0 -303 118.5t-113 313.5zM391 602q0 -205 178 -205q86 0 133.5 56.5t47.5 142.5q0 91 -45.5 147t-131.5 56q-81 0 -131.5 -56t-50.5 -141z" />
<glyph unicode=":" horiz-adv-x="586" d="M100 166q0 53 25.5 97.5t70 70.5t97.5 26q51 0 96.5 -26t71.5 -71.5t26 -96.5q0 -52 -26 -96.5t-71.5 -70.5t-96.5 -26q-53 0 -97.5 26t-70 70t-25.5 97zM100 733q0 79 56.5 137t136.5 58t137 -58t57 -137q0 -78 -57 -136t-137 -58t-136.5 58t-56.5 136z" />
<glyph unicode=";" horiz-adv-x="586" d="M70 -266q125 134 125 221q0 58 -45 106q-41 47 -41 113q0 72 50 125t134 53q85 0 139.5 -65t54.5 -168q0 -111 -70.5 -242t-219.5 -256zM100 733q0 79 56.5 137t136.5 58t137 -58t57 -137q0 -78 -57 -136t-137 -58t-136.5 58t-56.5 136z" />
<glyph unicode="&#x3c;" horiz-adv-x="1038" d="M82 510l655 620l205 -206l-457 -412l459 -410l-205 -211z" />
<glyph unicode="=" horiz-adv-x="1151" d="M117 182v250h917v-250h-917zM117 600v250h917v-250h-917z" />
<glyph unicode="&#x3e;" horiz-adv-x="1038" d="M96 922l205 211l657 -619l-655 -620l-205 206l457 412z" />
<glyph unicode="?" horiz-adv-x="895" d="M86 1206l39 285q174 -4 307 -42t219 -100t126 -138.5t40 -161.5q0 -102 -42 -171.5t-125.5 -148t-117.5 -121t-34 -114.5q0 -40 14 -82h-305q-29 81 -29 143q0 105 39 152.5t148.5 148.5t109.5 160q0 43 -27 78t-76 59t-121.5 37.5t-164.5 15.5zM182 152q0 76 53 127 t132 51q78 0 131 -51t53 -127q0 -75 -53.5 -126t-130.5 -51q-78 0 -131.5 51t-53.5 126z" />
<glyph unicode="@" horiz-adv-x="1632" d="M70 608q0 173 62.5 323t174 257.5t260.5 165t320 57.5q152 0 276 -44t210 -123.5t130.5 -182.5t44.5 -225q0 -161 -57 -275t-161 -170.5t-243 -56.5q-91 0 -140.5 42.5t-49.5 112.5h-8q-36 -66 -102.5 -110.5t-145.5 -44.5q-60 0 -104 29t-67.5 87.5t-23.5 149.5 q0 99 27.5 184.5t82.5 149.5t139 99.5t196 35.5q67 0 127.5 -11.5t101.5 -29.5l-59 -326q-8 -43 -8 -79q1 -42 16.5 -60t48.5 -18q170 0 170 276q0 99 -42.5 182t-136 132t-237.5 49q-150 0 -272.5 -69.5t-193 -194.5t-70.5 -285q0 -445 483 -445q82 0 169 15t165 41v-223 q-60 -26 -166.5 -43t-204.5 -17q-230 0 -391 79t-241 224.5t-80 341.5zM664 639q0 -96 45 -96q47 0 92 70.5t69 203.5l13 64q-24 10 -62 10q-46 0 -82.5 -39.5t-55.5 -99.5t-19 -113z" />
<glyph unicode="A" horiz-adv-x="1296" d="M-8 0l467 1382h362l486 -1382h-351l-86 256h-477l-84 -256h-317zM471 508h320l-97 276q-49 146 -63 230h-4q-25 -128 -66 -246z" />
<glyph unicode="B" horiz-adv-x="1200" d="M123 0v1380q233 11 504 11q150 0 258 -39t164.5 -118t56.5 -192q0 -97 -55.5 -178t-145.5 -121v-6q69 -18 119.5 -63.5t77 -109.5t26.5 -132q0 -115 -59.5 -215t-188.5 -160.5t-321 -60.5q-27 0 -174 2t-262 2zM442 262q40 -6 123 -6q104 0 162.5 46t58.5 126t-62 121 t-175 41q-82 0 -107 -2v-326zM442 827q27 -2 95 -2q113 0 172 44t59 124q0 68 -47.5 105t-145.5 37q-68 0 -133 -5v-303z" />
<glyph unicode="C" horiz-adv-x="1137" d="M68 641q0 170 45 308t134.5 237.5t221 153t299.5 53.5q146 0 283 -35l-37 -289q-125 37 -252 37q-109 0 -186.5 -50t-117.5 -143t-40 -219q0 -422 360 -422q53 0 122 13.5t120 36.5l37 -285q-159 -55 -342 -55q-241 0 -385 94.5t-203 243t-59 321.5z" />
<glyph unicode="D" horiz-adv-x="1352" d="M123 2v1376q74 4 221 8.5t250 4.5q692 0 692 -672q0 -233 -93.5 -397t-264 -248t-396.5 -84q-155 0 -409 12zM442 272q54 -8 119 -8q82 0 152.5 26t122 79.5t80 135t28.5 189.5q0 104 -18.5 182t-60.5 132t-113.5 84t-178.5 30q-96 0 -131 -4v-846z" />
<glyph unicode="E" horiz-adv-x="997" d="M123 0v1382h778v-268h-459v-274h435v-260h-435v-306h459v-274h-778z" />
<glyph unicode="F" horiz-adv-x="948" d="M123 0v1382h762v-272h-443v-295h418v-262h-418v-553h-319z" />
<glyph unicode="G" horiz-adv-x="1372" d="M66 657q0 219 95.5 388.5t276 263.5t420.5 94q198 0 397 -60l-49 -294q-173 69 -366 69q-132 0 -228.5 -53t-149 -152t-52.5 -231q0 -195 101.5 -305.5t291.5 -110.5q77 0 131 19v452h319v-669q-67 -28 -146.5 -48.5t-166 -31.5t-172.5 -11q-222 0 -380 82.5t-240 235.5 t-82 362z" />
<glyph unicode="H" horiz-adv-x="1391" d="M123 0v1382h319v-530h506v530h320v-1382h-320v575h-506v-575h-319z" />
<glyph unicode="I" horiz-adv-x="565" d="M123 0v1382h319v-1382h-319z" />
<glyph unicode="J" horiz-adv-x="694" d="M0 -4v270q52 -18 117 -18q70 0 104.5 37.5t34.5 128.5v968h317v-979q0 -120 -36.5 -214.5t-123.5 -151.5t-231 -57q-100 0 -182 16z" />
<glyph unicode="K" horiz-adv-x="1239" d="M123 0v1382h319v-610l379 610h387l-456 -665l479 -717h-414l-375 649v-649h-319z" />
<glyph unicode="L" horiz-adv-x="881" d="M123 0v1382h319v-1099h418v-283h-737z" />
<glyph unicode="M" horiz-adv-x="1794" d="M41 0l221 1382h367l192 -606q21 -64 40.5 -143t33.5 -158h4q25 134 78 303l197 604h360l221 -1382h-336l-88 569q-26 166 -41 322h-4q-31 -159 -80 -326l-170 -565h-307l-164 516q-64 205 -90 375h-2q-6 -67 -41 -350l-70 -541h-321z" />
<glyph unicode="N" horiz-adv-x="1419" d="M123 0v1382h409l304 -546q31 -57 86.5 -170.5t81.5 -169.5q-15 161 -15 432v454h307v-1382h-407l-326 596q-71 127 -143 303q4 -65 6 -127t3 -110t1 -136v-526h-307z" />
<glyph unicode="O" horiz-adv-x="1438" d="M57 674q0 164 53.5 302t149 234.5t219 147.5t264.5 51q188 0 331 -74.5t224.5 -231t81.5 -390.5q0 -221 -90.5 -389.5t-246.5 -259.5t-349 -91q-157 0 -277.5 48t-200 138.5t-119.5 221t-40 293.5zM395 700q0 -204 79 -319t239 -115q132 0 230.5 104.5t98.5 321.5 q0 141 -36.5 235.5t-109 142.5t-177.5 48q-87 0 -160 -45.5t-118.5 -139.5t-45.5 -233z" />
<glyph unicode="P" horiz-adv-x="1098" d="M123 0v1382q187 11 393 11q173 0 296 -51.5t186 -151.5t63 -242q0 -136 -64 -248t-188.5 -177.5t-292.5 -65.5q-45 0 -74 2v-459h-319zM442 725q42 -4 56 -4q103 2 168 58t65 155q0 92 -53.5 145.5t-167.5 53.5q-45 0 -68 -3v-405z" />
<glyph unicode="Q" horiz-adv-x="1438" d="M57 674q0 164 53.5 302t149 234.5t219 147.5t264.5 51q188 0 331 -74.5t224.5 -231t81.5 -390.5q0 -221 -90.5 -389.5t-246.5 -259.5t-349 -91q-157 0 -277.5 48t-200 138.5t-119.5 221t-40 293.5zM395 700q0 -204 79 -319t239 -115q132 0 230.5 104.5t98.5 321.5 q0 141 -36.5 235.5t-109 142.5t-177.5 48q-87 0 -160 -45.5t-118.5 -139.5t-45.5 -233zM594 -115q79 9 143 9q78 0 143.5 -9.5t153 -27t131.5 -24.5t115 -7q67 0 154 12v-278q-108 -17 -187 -17q-65 0 -118 7t-148 26.5t-149.5 28t-124.5 8.5q-51 0 -113 -6v278z" />
<glyph unicode="R" horiz-adv-x="1178" d="M123 0v1382q143 11 432 11q522 0 522 -410q0 -93 -37.5 -171.5t-107.5 -134t-160 -77.5q88 -126 107 -156l292 -444h-389l-327 541h-13v-541h-319zM442 772q34 -4 80 -4q102 0 161.5 50t59.5 138q0 174 -213 174q-50 0 -88 -4v-354z" />
<glyph unicode="S" horiz-adv-x="1028" d="M68 975q0 130 65 227.5t189 151t294 53.5q126 0 252 -25l-18 -276q-131 37 -246 37q-97 0 -145.5 -37t-48.5 -98q0 -69 100 -119t201 -94t175.5 -125t74.5 -228q0 -102 -39 -186.5t-114.5 -148.5t-181.5 -98t-233 -34q-146 0 -282 31l16 295q28 -11 84 -24.5t104.5 -20 t102.5 -6.5q92 0 146 37.5t54 109.5q0 77 -50 105t-202 91t-225 144.5t-73 237.5z" />
<glyph unicode="T" horiz-adv-x="1038" d="M29 1110v272h981v-272h-332v-1110h-318v1110h-331z" />
<glyph unicode="U" horiz-adv-x="1378" d="M123 487v895h319v-876q0 -85 22 -143.5t76.5 -89.5t149.5 -31q91 0 145.5 27t79.5 89.5t25 165.5v858h315v-839q0 -285 -152 -427.5t-433 -142.5q-159 0 -267 40.5t-168.5 110.5t-86 161.5t-25.5 201.5z" />
<glyph unicode="V" horiz-adv-x="1300" d="M-4 1382h344l244 -755q50 -160 75 -258h3q33 147 75 276l242 737h326l-467 -1382h-373z" />
<glyph unicode="W" horiz-adv-x="1948" d="M37 1382h338l162 -673q31 -136 45 -289h2q13 89 25 154t28 126l180 682h330l180 -669q33 -124 55 -285h2q7 48 15.5 102t18.5 105t18 84l155 663h320l-346 -1382h-387l-164 651q-31 124 -51 316h-2q-17 -169 -52 -305l-166 -662h-364z" />
<glyph unicode="X" horiz-adv-x="1327" d="M12 0l432 705l-407 677h369l251 -448l248 448h363l-400 -680l447 -702h-402l-262 467l-262 -467h-377z" />
<glyph unicode="Y" horiz-adv-x="1184" d="M-4 1382h348l158 -352q53 -117 88 -221h4q30 87 106 250l150 323h336l-438 -899v-483h-320v481z" />
<glyph unicode="Z" horiz-adv-x="1098" d="M90 0v250l445 743q26 44 73 107q-74 -4 -217 -4h-287v286h895v-260l-469 -753q-21 -35 -53 -78q27 4 268 4h263v-295h-918z" />
<glyph unicode="[" horiz-adv-x="678" d="M127 -426v2025h481v-249h-188v-1524h188v-252h-481z" />
<glyph unicode="\" horiz-adv-x="854" d="M8 1382h299l543 -1382h-301z" />
<glyph unicode="]" horiz-adv-x="678" d="M72 -174h186v1524h-186v249h481v-2025h-481v252z" />
<glyph unicode="^" horiz-adv-x="1096" d="M86 788l334 594h235l349 -589l-222 -111l-250 481l-239 -481z" />
<glyph unicode="_" horiz-adv-x="1024" d="M0 -264h1024v-252h-1024v252z" />
<glyph unicode="`" horiz-adv-x="772" d="M154 1325l125 217l399 -225l-103 -182z" />
<glyph unicode="a" horiz-adv-x="1077" d="M66 256q0 125 74 210.5t205 128t294 42.5v39q0 64 -41.5 94.5t-140.5 30.5q-69 0 -153.5 -21t-143.5 -53l-25 258q77 25 176 42t193 17q172 0 269.5 -41.5t138 -121.5t40.5 -201v-438q0 -139 9 -242h-293q0 102 8 154h-2q-36 -80 -121.5 -128.5t-190.5 -48.5 q-141 0 -218.5 76.5t-77.5 202.5zM360 303q0 -39 27 -63.5t76 -24.5q52 0 91.5 27t62 73t22.5 95v28q-157 0 -218 -36t-61 -99z" />
<glyph unicode="b" horiz-adv-x="1145" d="M121 29v1466h311v-401q0 -110 -14 -203l2 -2q39 71 114 111t175 40q92 0 161 -32.5t115.5 -94t71 -150t24.5 -200.5q0 -168 -65 -302t-192.5 -209t-305.5 -75q-74 0 -142.5 6t-134.5 18.5t-120 27.5zM432 240q42 -13 109 -13q211 0 211 305q0 127 -34 187.5t-106 60.5 q-79 0 -129.5 -81t-50.5 -203v-256z" />
<glyph unicode="c" horiz-adv-x="856" d="M61 477q0 159 58 286.5t178.5 202t300.5 74.5q93 0 197 -26l-33 -271q-87 29 -160 29q-70 0 -118 -32t-72.5 -93t-24.5 -145q0 -119 53.5 -185.5t157.5 -66.5q99 0 172 37l25 -264q-111 -43 -267 -43q-231 0 -349 126t-118 371z" />
<glyph unicode="d" horiz-adv-x="1143" d="M61 453q0 124 36.5 230.5t108 187.5t173 124t229.5 43q53 0 103 -6v463h311v-1495h-287q0 81 10 145h-4q-95 -170 -309 -170q-120 0 -204 58.5t-125.5 166t-41.5 253.5zM391 485q0 -249 141 -249q78 0 128.5 81.5t50.5 210.5v250q-57 13 -107 13q-99 0 -156 -72t-57 -234 z" />
<glyph unicode="e" d="M61 498q0 159 58 282t167.5 192.5t264.5 69.5q148 0 247.5 -61t147 -167.5t47.5 -244.5q0 -55 -10 -137h-606q2 -103 65.5 -158t186.5 -55q159 0 299 64l28 -236q-170 -70 -376 -70q-519 0 -519 521zM379 639h307q0 56 -17 96t-49 60t-77 20q-67 0 -112.5 -49.5 t-51.5 -126.5z" />
<glyph unicode="f" horiz-adv-x="731" d="M18 778v240h156v88q0 207 99 307t319 100q92 0 164 -16l-21 -254q-59 19 -112 19q-72 0 -105 -36.5t-33 -117.5v-90h209v-240h-209v-778h-311v778h-156z" />
<glyph unicode="g" horiz-adv-x="1137" d="M63 -209q0 71 43.5 138.5t102.5 97.5q-98 50 -98 157q0 59 35 112t87 71q-72 37 -110.5 110.5t-38.5 167.5q0 109 54 200t159.5 144t255.5 53q92 0 190 -24h342v-246h-110q26 -37 26 -96q0 -111 -52.5 -194t-151.5 -127t-236 -44q-36 0 -82 4q-37 -14 -37 -51 q0 -31 29.5 -42t116.5 -11h139q169 0 258.5 -76t89.5 -227q0 -112 -69.5 -208t-199 -153t-300.5 -57q-210 0 -326.5 76t-116.5 225zM371 -147q0 -60 47.5 -93.5t132.5 -33.5q105 0 162 38.5t57 100.5q0 47 -32 75.5t-99 28.5h-162q-28 0 -39 2q-67 -45 -67 -118zM381 670 q0 -68 43 -109t123 -41q71 0 114.5 40.5t43.5 107.5q0 69 -43 109t-119 40q-75 0 -118.5 -40.5t-43.5 -106.5z" />
<glyph unicode="h" horiz-adv-x="1163" d="M121 0v1495h311v-408q0 -124 -16 -208h2q47 75 128.5 118t192.5 43q160 0 230.5 -87.5t70.5 -233.5v-719h-311v647q0 67 -20.5 99t-73.5 32q-54 0 -101 -39.5t-74.5 -105t-27.5 -141.5v-492h-311z" />
<glyph unicode="i" horiz-adv-x="555" d="M86 1309q0 52 25.5 93.5t69.5 66t95 24.5q81 0 137 -53.5t56 -130.5q0 -50 -25.5 -92t-70 -67.5t-97.5 -25.5q-77 0 -133.5 54t-56.5 131zM121 0v1018h311v-1018h-311z" />
<glyph unicode="j" horiz-adv-x="559" d="M-133 -479l18 264q61 -23 117 -23q68 0 96.5 35t28.5 117v1104h311v-1069q0 -221 -97.5 -335t-326.5 -114q-78 0 -147 21zM90 1309q0 52 25.5 93t70 66t97.5 25q80 0 135 -53.5t55 -130.5t-55.5 -131t-134.5 -54q-80 0 -136.5 54t-56.5 131z" />
<glyph unicode="k" horiz-adv-x="1110" d="M121 0v1495h311v-887l258 410h383l-336 -467l361 -551h-389l-277 489v-489h-311z" />
<glyph unicode="l" horiz-adv-x="555" d="M121 0v1495h311v-1495h-311z" />
<glyph unicode="m" horiz-adv-x="1757" d="M121 0v1018h293q0 -83 -13 -162h2q29 53 80 96.5t114 65.5t132 22q113 0 183.5 -49t95.5 -135q44 81 128 132.5t193 51.5q150 0 228.5 -85t78.5 -257v-698h-313v639q0 69 -20.5 104t-71.5 35q-48 0 -94 -38t-75.5 -106t-29.5 -145v-489h-307v639q0 69 -20 104t-72 35 q-50 0 -96.5 -38.5t-75.5 -105.5t-29 -145v-489h-311z" />
<glyph unicode="n" horiz-adv-x="1163" d="M121 0v1018h291q0 -102 -13 -160h2q51 84 136 133t202 49q160 0 230.5 -87.5t70.5 -233.5v-719h-311v647q0 67 -20.5 99t-73.5 32q-54 0 -101 -39.5t-74.5 -105t-27.5 -139.5v-494h-311z" />
<glyph unicode="o" horiz-adv-x="1143" d="M57 485q0 122 40.5 226t112.5 176.5t171.5 112.5t214.5 40q234 0 360.5 -129t126.5 -381q0 -123 -40 -224t-112.5 -175.5t-171 -114t-212.5 -39.5q-231 0 -360.5 123.5t-129.5 384.5zM381 520q0 -139 46 -205.5t142 -66.5q85 0 138 69t53 195q0 133 -44.5 197.5 t-140.5 64.5q-80 0 -137 -64t-57 -190z" />
<glyph unicode="p" horiz-adv-x="1145" d="M121 -485v1503h287q0 -79 -9 -146h4q44 82 120.5 125t187.5 43q179 0 274.5 -125.5t95.5 -349.5q0 -131 -33 -237.5t-101.5 -184.5t-172 -118.5t-237.5 -40.5q-61 0 -105 8v-477h-311zM432 240q48 -13 109 -13q211 0 211 305q0 128 -34 189t-106 61q-79 0 -129.5 -83.5 t-50.5 -209.5v-249z" />
<glyph unicode="q" horiz-adv-x="1145" d="M63 451q0 126 36.5 233.5t108.5 187.5t179 124t244 44q189 0 393 -32v-1493h-313v415q0 113 14 207l-4 2q-38 -77 -112 -120.5t-167 -43.5q-122 0 -207 54t-128.5 161t-43.5 261zM391 485q0 -84 15 -140t46 -82.5t78 -26.5q53 0 94 37.5t64 106t23 155.5v245 q-57 11 -107 11q-99 0 -156 -72t-57 -234z" />
<glyph unicode="r" horiz-adv-x="729" d="M121 0v1018h291q0 -94 -15 -180h4q93 204 306 204l-15 -309q-32 8 -67 8q-193 0 -193 -321v-420h-311z" />
<glyph unicode="s" horiz-adv-x="842" d="M70 702q0 72 29 133.5t85 107t142 72.5t194 27q64 0 178 -16l-6 -244q-78 25 -180 25q-57 0 -87 -21t-30 -57q0 -40 62 -70.5t139 -66.5t128.5 -98.5t51.5 -171.5q0 -78 -33.5 -142.5t-95 -109.5t-149.5 -69t-191 -24q-71 0 -211 17l6 254q108 -33 213 -33q59 0 94 22.5 t35 57.5q0 49 -68.5 80.5t-137 62t-118.5 91t-50 173.5z" />
<glyph unicode="t" horiz-adv-x="772" d="M16 778v240h154v301l311 84v-385h221v-240h-219v-401q0 -77 23.5 -108t81.5 -31q50 0 114 16v-248q-121 -29 -221 -29q-118 0 -185.5 30t-96.5 100.5t-29 197.5v473h-154z" />
<glyph unicode="u" horiz-adv-x="1159" d="M119 299v719h313v-647q0 -65 21.5 -98t72.5 -33q53 0 100 39.5t74 106t27 138.5v494h313v-1018h-290q0 101 12 160h-4q-50 -84 -135.5 -133.5t-200.5 -49.5q-108 0 -176 42t-97.5 113.5t-29.5 166.5z" />
<glyph unicode="v" d="M-2 1018h342l125 -361q27 -76 74 -247h4q27 125 65 237l125 371h332l-375 -1018h-317z" />
<glyph unicode="w" horiz-adv-x="1634" d="M10 1018h340l78 -283q46 -162 84 -332h4q26 157 76 318l88 297h289l90 -281q55 -175 86 -334h4q37 198 72 318l84 297h319l-317 -1018h-332l-113 354q-25 84 -59 244h-2q-20 -102 -66 -256l-102 -342h-314z" />
<glyph unicode="x" horiz-adv-x="1094" d="M10 0l336 516l-315 502h370l160 -305l162 305h344l-297 -502l315 -516h-389l-157 311l-158 -311h-371z" />
<glyph unicode="y" horiz-adv-x="1057" d="M6 1018h344l103 -297q21 -60 42.5 -138.5t39.5 -158.5h2q37 157 96 328l92 266h334l-416 -1106q-61 -161 -123.5 -250t-144.5 -125.5t-205 -36.5q-74 0 -152 19l19 266q77 -25 145 -25q57 0 96.5 33.5t67.5 118.5l29 88z" />
<glyph unicode="z" horiz-adv-x="926" d="M90 0v223l356 518q-56 -4 -184 -4h-160v281h725v-223l-346 -510q33 2 199 2h154v-287h-744z" />
<glyph unicode="{" horiz-adv-x="770" d="M53 520v234q66 2 108.5 20t65.5 65.5t23 135.5v135q0 172 41.5 279.5t130 158.5t235.5 51h48v-249q-66 0 -101 -18.5t-49 -68.5t-14 -151v-135q0 -169 -50 -247t-139 -91v-4q189 -29 189 -348v-219q0 -103 14 -153.5t49 -69.5t101 -19v-252h-48q-144 0 -233.5 50 t-131.5 158.5t-42 285.5v221q0 126 -48.5 176t-148.5 55z" />
<glyph unicode="|" horiz-adv-x="561" d="M152 -512v2048h247v-2048h-247z" />
<glyph unicode="}" horiz-adv-x="766" d="M68 -174q68 0 102 18.5t47.5 70.5t13.5 153v219q0 319 189 348v4q-58 8 -100 43t-65.5 107t-23.5 186v137q0 99 -13.5 150.5t-47.5 69.5t-102 18v249h49q146 0 234.5 -51.5t129.5 -159.5t41 -278v-133q0 -128 48 -174t151 -49v-234q-100 -5 -149.5 -55.5t-49.5 -175.5 v-221q0 -177 -41.5 -285.5t-131 -158.5t-232.5 -50h-49v252z" />
<glyph unicode="~" horiz-adv-x="1163" d="M66 629q61 57 139.5 91t173.5 34q64 0 117.5 -15t114 -41.5t96 -37.5t75.5 -11q57 0 110 23.5t107 70.5l95 -227q-37 -46 -85.5 -78t-107 -48.5t-123.5 -16.5q-52 0 -105 13.5t-119 39t-109 38.5t-91 13q-56 0 -108.5 -23.5t-87.5 -58.5z" />
<glyph unicode="&#xa1;" horiz-adv-x="627" d="M119 864q0 76 53 127t129 51q80 0 132 -51t52 -127q0 -47 -24 -88.5t-66.5 -65.5t-93.5 -24q-49 0 -91 24t-66.5 65.5t-24.5 88.5zM129 -463l33 1069h272l35 -1069h-340z" />
<glyph unicode="&#xa2;" horiz-adv-x="926" d="M78 545q0 193 95.5 330.5t264.5 177.5v190h234v-174q91 -7 159 -31l-28 -260q-80 39 -174 39q-104 0 -166 -67t-62 -187q0 -113 54.5 -175t165.5 -62q99 0 190 43l23 -269q-72 -26 -162 -37v-202h-234v205q-116 16 -198 80t-122 166.5t-40 232.5z" />
<glyph unicode="&#xa3;" horiz-adv-x="993" d="M102 0v242q101 49 147 101t46 146q0 29 -12 132h-170v239h145q-2 15 -8 59.5t-9 80t-3 53.5q0 102 25.5 177t77.5 124t128.5 72.5t179.5 23.5q92 0 185 -16l-19 -256q-63 14 -125 14q-135 0 -135 -145q0 -47 16 -187h236v-239h-211q6 -46 6 -91q0 -153 -117 -264 q28 2 60 3.5t41 2t41 0.5h260v-272h-785z" />
<glyph unicode="&#xa4;" horiz-adv-x="1137" d="M61 453q0 127 37 234t108.5 185.5t179 123t243.5 44.5q189 0 393 -32v-1012q0 -498 -584 -498q-52 0 -108.5 4.5t-111.5 14t-99 22.5l24 285q148 -62 308 -62q136 0 200 50.5t64 164.5v37q0 76 10 127h-4q-37 -75 -112 -118t-169 -43q-183 0 -281 122t-98 351zM391 485 q0 -127 34 -186t105 -59q52 0 93.5 37t64.5 103.5t23 154.5v243q-67 13 -107 13q-99 0 -156 -72t-57 -234z" />
<glyph unicode="&#xa5;" horiz-adv-x="1243" d="M25 1382h346l157 -323q42 -85 93 -223h4q28 92 110 249l150 297h336l-369 -725h229v-192h-303v-105h303v-196h-303v-164h-315v164h-305v196h305v105h-305v192h229z" />
<glyph unicode="&#xa7;" horiz-adv-x="1067" d="M104 666q0 60 18.5 117.5t53 105.5t74.5 78q-68 83 -68 204q0 95 50 177.5t160.5 133t277.5 50.5q95 0 155 -14l-14 -263q-63 21 -145 21q-148 0 -148 -98q0 -49 75 -117.5t160.5 -143t146.5 -173t61 -224.5q0 -91 -42 -170.5t-106 -128.5q72 -86 72 -213 q0 -88 -51.5 -170t-166 -135t-294.5 -53q-87 0 -172 18l18 266q71 -22 158 -22q88 0 129 29.5t41 76.5q0 53 -78.5 122t-161 138.5t-143 164.5t-60.5 223zM385 705q0 -33 11.5 -63.5t43 -70.5t74.5 -81t127 -113q41 33 41 100q0 42 -18 80t-46.5 69t-88.5 87t-103 98 q-41 -38 -41 -106z" />
<glyph unicode="&#xa8;" horiz-adv-x="1118" d="M164 1321q0 66 48 114t114 48q68 0 114.5 -47.5t46.5 -114.5q0 -66 -47 -114t-114 -48q-65 0 -113.5 48.5t-48.5 113.5zM592 1321q0 66 48 114t114 48q68 0 114.5 -47.5t46.5 -114.5q0 -66 -47 -114t-114 -48q-65 0 -113.5 48.5t-48.5 113.5z" />
<glyph unicode="&#xa9;" horiz-adv-x="1567" d="M74 682q0 192 95.5 355.5t258.5 258.5t354 95q193 0 356 -95t258 -258.5t95 -355.5t-95.5 -355.5t-258.5 -258.5t-355 -95q-193 0 -356 95t-257.5 259t-94.5 355zM305 682q0 -94 36.5 -182t105 -156.5t154.5 -104.5t181 -36q97 0 184.5 37t154.5 104t103 153.5t36 184.5 q0 97 -37 184.5t-103 153t-152 102.5t-186 37q-97 0 -183.5 -36.5t-153 -103t-103.5 -154t-37 -183.5zM444 676q0 103 40 188.5t121.5 135t199.5 49.5q95 0 174 -35l-37 -201q-38 33 -117 33q-127 0 -127 -166q0 -74 30.5 -111t86.5 -37q72 0 131 29l43 -196 q-46 -23 -99.5 -34.5t-113.5 -11.5q-98 0 -173.5 43.5t-117 124.5t-41.5 189z" />
<glyph unicode="&#xaa;" horiz-adv-x="831" d="M70 831q0 142 116 209.5t295 67.5v27q0 77 -110 77q-113 0 -230 -55l-24 201q134 47 295 47q113 0 184 -33.5t100 -88t29 -122.5q0 -129 -0.5 -198.5t-1.5 -149.5q0 -54 4 -172h-229q0 53 8 96h-2q-24 -50 -82.5 -83t-124.5 -33q-114 0 -170.5 58t-56.5 152zM299 866 q0 -24 18 -40.5t48 -16.5q53 0 84.5 39t31.5 86v20q-95 0 -138.5 -20t-43.5 -68z" />
<glyph unicode="&#xab;" horiz-adv-x="1126" d="M70 510l219 422l243 -107l-165 -313l170 -309l-254 -109zM549 510l242 410l235 -111l-180 -297l184 -293l-246 -113z" />
<glyph unicode="&#xac;" horiz-adv-x="1182" d="M66 408v254h1009v-549h-278v295h-731z" />
<glyph unicode="&#xad;" horiz-adv-x="690" d="M86 399v250h516v-250h-516z" />
<glyph unicode="&#xae;" horiz-adv-x="1157" d="M80 1090q0 100 39 190.5t108 157.5t158.5 104t192.5 37q136 0 250 -64.5t180.5 -177t66.5 -247.5q0 -99 -38.5 -188.5t-107 -157t-160 -105t-191.5 -37.5q-102 0 -194 38t-159.5 103.5t-106 156t-38.5 190.5zM262 1092q0 -130 93 -224t223 -94q85 0 157.5 42.5t115 116 t42.5 157.5t-42.5 158t-115 116.5t-157.5 42.5q-84 0 -157.5 -42.5t-116 -115t-42.5 -157.5zM401 866v451h207q164 0 164 -131q0 -92 -78 -125q14 -12 27 -49l57 -146h-164l-57 162h-18v-162h-138zM539 1122h20q28 0 42.5 13t14.5 34q0 43 -51 43h-26v-90z" />
<glyph unicode="&#xaf;" horiz-adv-x="649" d="M90 1206v226h438v-226h-438z" />
<glyph unicode="&#xb0;" horiz-adv-x="811" d="M72 1221q0 92 48 162t123.5 106.5t159.5 36.5q164 0 243 -83.5t79 -215.5q0 -97 -47 -167t-125 -106t-166 -36q-95 0 -167.5 36t-110 104.5t-37.5 162.5zM299 1223q0 -52 27 -81.5t73 -29.5t72.5 32t26.5 83q0 44 -25.5 75t-71.5 31q-45 0 -73.5 -31t-28.5 -79z" />
<glyph unicode="&#xb1;" horiz-adv-x="1225" d="M100 535v258h365v360h297v-360h364v-258h-364v-365h-297v365h-365zM111 76h1003v-260h-1003v260z" />
<glyph unicode="&#xb4;" horiz-adv-x="811" d="M174 1317l399 223l121 -215l-420 -188z" />
<glyph unicode="&#xb5;" horiz-adv-x="1245" d="M133 -485v1503h313v-606q0 -99 38 -139t110 -40q88 0 146.5 80t58.5 211v494h311v-1018h-293q0 37 1.5 77t4.5 64h-2q-28 -64 -91 -109.5t-155 -45.5q-80 0 -131 37l-2 -3q4 -80 4 -188v-317h-313z" />
<glyph unicode="&#xb6;" horiz-adv-x="1243" d="M96 915q0 143 64.5 248.5t179.5 162t264 56.5v-933q-129 0 -226.5 36.5t-159.5 101.5t-92 150t-30 178zM629 55h137v1327h387v-252h-127v-1327h-397v252z" />
<glyph unicode="&#xb8;" horiz-adv-x="819" d="M215 -401q117 73 117 176q0 55 -37 121h283q40 -77 40 -150q0 -81 -59.5 -148t-196.5 -116z" />
<glyph unicode="&#xba;" horiz-adv-x="881" d="M66 1008q0 123 52 213t141 138t196 48q171 0 263.5 -94t92.5 -291q0 -118 -51 -209t-141 -140.5t-201 -49.5q-156 0 -254 92.5t-98 292.5zM311 1016q0 -82 29.5 -131t93.5 -49q131 0 131 182q0 86 -29.5 131t-97.5 45q-52 0 -89.5 -44t-37.5 -134z" />
<glyph unicode="&#xbb;" horiz-adv-x="1126" d="M96 807l248 113l236 -404l-242 -410l-238 111l183 297zM592 823l254 109l213 -416l-219 -422l-246 107l168 313z" />
<glyph unicode="&#xbf;" horiz-adv-x="895" d="M78 -33q0 103 41.5 171.5t125 148t118 123t34.5 114.5q0 39 -14 82h303q29 -76 29 -145q0 -84 -39.5 -144.5t-117 -130t-108 -104t-30.5 -82.5q0 -84 103 -134.5t286 -55.5l-39 -283q-180 6 -311.5 44t-215.5 99.5t-124.5 138t-40.5 158.5zM344 864q0 76 53 127t131 51 q53 0 95 -24t66 -65t24 -89q0 -47 -24.5 -88.5t-67 -65.5t-93.5 -24q-77 0 -130.5 52.5t-53.5 125.5z" />
<glyph unicode="&#xc0;" horiz-adv-x="1296" d="M-8 0l467 1382h362l486 -1382h-351l-86 256h-477l-84 -256h-317zM277 1649l125 217l399 -225l-103 -182zM471 508h320l-97 276q-49 146 -63 230h-4q-25 -128 -66 -246z" />
<glyph unicode="&#xc1;" horiz-adv-x="1296" d="M-8 0l467 1382h362l486 -1382h-351l-86 256h-477l-84 -256h-317zM428 1641l399 223l121 -215l-420 -188zM471 508h320l-97 276q-49 146 -63 230h-4q-25 -128 -66 -246z" />
<glyph unicode="&#xc2;" horiz-adv-x="1296" d="M-8 0l467 1382h362l486 -1382h-351l-86 256h-477l-84 -256h-317zM315 1657l326 172l330 -170l-88 -184l-242 123l-240 -123zM471 508h320l-97 276q-49 146 -63 230h-4q-25 -128 -66 -246z" />
<glyph unicode="&#xc3;" horiz-adv-x="1296" d="M-8 0l467 1382h362l486 -1382h-351l-86 256h-477l-84 -256h-317zM268 1721q104 92 220 92q53 0 89.5 -13.5t84 -40.5t76 -38t67.5 -11q40 0 80 18.5t67 45.5l56 -207q-35 -32 -100 -60t-119 -28q-57 0 -92.5 12t-79.5 37t-75.5 38t-76.5 13q-38 0 -75.5 -18.5 t-65.5 -46.5zM471 508h320l-97 276q-49 146 -63 230h-4q-25 -128 -66 -246z" />
<glyph unicode="&#xc4;" horiz-adv-x="1296" d="M-8 0l467 1382h362l486 -1382h-351l-86 256h-477l-84 -256h-317zM264 1634q0 66 48 114t114 48q68 0 114.5 -47.5t46.5 -114.5q0 -66 -47 -114t-114 -48q-65 0 -113.5 48.5t-48.5 113.5zM471 508h320l-97 276q-49 146 -63 230h-4q-25 -128 -66 -246zM692 1634 q0 66 48 114t114 48q68 0 114.5 -47.5t46.5 -114.5q0 -66 -47 -114t-114 -48q-65 0 -113.5 48.5t-48.5 113.5z" />
<glyph unicode="&#xc5;" horiz-adv-x="1296" d="M-8 0l467 1382h362l486 -1382h-351l-86 256h-477l-84 -256h-317zM365 1587q0 114 80.5 190t197.5 76q78 0 141.5 -34.5t100.5 -96t37 -135.5t-37 -134.5t-101 -95t-141 -34.5t-140.5 34t-100.5 95t-37 135zM471 508h320l-97 276q-49 146 -63 230h-4q-25 -128 -66 -246z M541 1587q0 -43 30 -73t72 -30q43 0 73 30t30 73q0 45 -29.5 74.5t-73.5 29.5q-43 0 -72.5 -29.5t-29.5 -74.5z" />
<glyph unicode="&#xc6;" horiz-adv-x="1614" d="M-72 0l652 1382h925v-268h-452v-274h436v-260h-436v-306h465v-274h-770v287h-369l-127 -287h-324zM483 535h265v579h-5q-67 -179 -122 -293z" />
<glyph unicode="&#xc7;" horiz-adv-x="1137" d="M68 641q0 170 45 308t134.5 237.5t221 153t299.5 53.5q146 0 283 -35l-37 -289q-125 37 -252 37q-109 0 -186.5 -50t-117.5 -143t-40 -219q0 -422 360 -422q53 0 122 13.5t120 36.5l37 -285q-159 -55 -342 -55q-241 0 -385 94.5t-203 243t-59 321.5zM442 -401 q117 73 117 176q0 55 -37 121h283q40 -77 40 -150q0 -81 -59.5 -148t-196.5 -116z" />
<glyph unicode="&#xc8;" horiz-adv-x="997" d="M123 0v1382h778v-268h-459v-274h435v-260h-435v-306h459v-274h-778zM187 1649l125 217l399 -225l-103 -182z" />
<glyph unicode="&#xc9;" horiz-adv-x="997" d="M123 0v1382h778v-268h-459v-274h435v-260h-435v-306h459v-274h-778zM299 1641l399 223l121 -215l-420 -188z" />
<glyph unicode="&#xca;" horiz-adv-x="997" d="M123 0v1382h778v-268h-459v-274h435v-260h-435v-306h459v-274h-778zM182 1657l326 172l330 -170l-88 -184l-242 123l-240 -123z" />
<glyph unicode="&#xcb;" horiz-adv-x="997" d="M123 0v1382h778v-268h-459v-274h435v-260h-435v-306h459v-274h-778zM135 1634q0 66 48 114t114 48q68 0 114.5 -47.5t46.5 -114.5q0 -66 -47 -114t-114 -48q-65 0 -113.5 48.5t-48.5 113.5zM563 1634q0 66 48 114t114 48q68 0 114.5 -47.5t46.5 -114.5q0 -66 -47 -114 t-114 -48q-65 0 -113.5 48.5t-48.5 113.5z" />
<glyph unicode="&#xcc;" horiz-adv-x="565" d="M-8 1647l125 219l399 -226l-102 -182zM123 0v1382h319v-1382h-319z" />
<glyph unicode="&#xcd;" horiz-adv-x="565" d="M49 1638l400 226l120 -215l-419 -189zM123 0v1382h319v-1382h-319z" />
<glyph unicode="&#xce;" horiz-adv-x="565" d="M-41 1655l326 174l329 -170l-88 -186l-243 124l-240 -124zM123 0v1382h319v-1382h-319z" />
<glyph unicode="&#xcf;" horiz-adv-x="565" d="M-96 1634q0 67 46.5 114.5t115.5 47.5q35 0 63.5 -13t50 -34.5t34.5 -51t13 -63.5q0 -68 -47.5 -114.5t-113.5 -46.5q-68 0 -115 47t-47 114zM123 0v1382h319v-1382h-319zM332 1634q0 67 46.5 114.5t115.5 47.5q35 0 63.5 -13t50 -34.5t34.5 -51t13 -63.5 q0 -68 -47.5 -114.5t-113.5 -46.5q-68 0 -115 47t-47 114z" />
<glyph unicode="&#xd1;" horiz-adv-x="1419" d="M123 0v1382h409l304 -546q31 -57 86.5 -170.5t81.5 -169.5q-15 161 -15 432v454h307v-1382h-407l-326 596q-71 127 -143 303q4 -65 6 -127t3 -110t1 -136v-526h-307zM327 1721q104 92 220 92q53 0 89.5 -13.5t84 -40.5t76 -38t67.5 -11q40 0 80 18.5t67 45.5l56 -207 q-35 -32 -100 -60t-119 -28q-57 0 -92.5 12t-79.5 37t-75.5 38t-76.5 13q-38 0 -75.5 -18.5t-65.5 -46.5z" />
<glyph unicode="&#xd2;" horiz-adv-x="1438" d="M57 674q0 164 53.5 302t149 234.5t219 147.5t264.5 51q188 0 331 -74.5t224.5 -231t81.5 -390.5q0 -221 -90.5 -389.5t-246.5 -259.5t-349 -91q-157 0 -277.5 48t-200 138.5t-119.5 221t-40 293.5zM395 700q0 -204 79 -319t239 -115q132 0 230.5 104.5t98.5 321.5 q0 141 -36.5 235.5t-109 142.5t-177.5 48q-87 0 -160 -45.5t-118.5 -139.5t-45.5 -233zM422 1649l125 217l399 -225l-103 -182z" />
<glyph unicode="&#xd3;" horiz-adv-x="1438" d="M57 674q0 164 53.5 302t149 234.5t219 147.5t264.5 51q188 0 331 -74.5t224.5 -231t81.5 -390.5q0 -221 -90.5 -389.5t-246.5 -259.5t-349 -91q-157 0 -277.5 48t-200 138.5t-119.5 221t-40 293.5zM395 700q0 -204 79 -319t239 -115q132 0 230.5 104.5t98.5 321.5 q0 141 -36.5 235.5t-109 142.5t-177.5 48q-87 0 -160 -45.5t-118.5 -139.5t-45.5 -233zM553 1641l399 223l121 -215l-420 -188z" />
<glyph unicode="&#xd4;" horiz-adv-x="1438" d="M57 674q0 164 53.5 302t149 234.5t219 147.5t264.5 51q188 0 331 -74.5t224.5 -231t81.5 -390.5q0 -221 -90.5 -389.5t-246.5 -259.5t-349 -91q-157 0 -277.5 48t-200 138.5t-119.5 221t-40 293.5zM395 700q0 -204 79 -319t239 -115q132 0 230.5 104.5t98.5 321.5 q0 141 -36.5 235.5t-109 142.5t-177.5 48q-87 0 -160 -45.5t-118.5 -139.5t-45.5 -233zM413 1657l326 172l330 -170l-88 -184l-242 123l-240 -123z" />
<glyph unicode="&#xd5;" horiz-adv-x="1438" d="M57 674q0 164 53.5 302t149 234.5t219 147.5t264.5 51q188 0 331 -74.5t224.5 -231t81.5 -390.5q0 -221 -90.5 -389.5t-246.5 -259.5t-349 -91q-157 0 -277.5 48t-200 138.5t-119.5 221t-40 293.5zM360 1729q104 92 220 92q53 0 89.5 -13.5t84 -40.5t76 -38t67.5 -11 q40 0 80 18.5t67 45.5l56 -207q-35 -32 -100 -60t-119 -28q-57 0 -92.5 12t-79.5 37t-75.5 38t-76.5 13q-38 0 -75.5 -18.5t-65.5 -46.5zM395 700q0 -204 79 -319t239 -115q132 0 230.5 104.5t98.5 321.5q0 141 -36.5 235.5t-109 142.5t-177.5 48q-87 0 -160 -45.5 t-118.5 -139.5t-45.5 -233z" />
<glyph unicode="&#xd6;" horiz-adv-x="1438" d="M57 674q0 164 53.5 302t149 234.5t219 147.5t264.5 51q188 0 331 -74.5t224.5 -231t81.5 -390.5q0 -221 -90.5 -389.5t-246.5 -259.5t-349 -91q-157 0 -277.5 48t-200 138.5t-119.5 221t-40 293.5zM369 1634q0 66 48 114t114 48q68 0 114.5 -47.5t46.5 -114.5 q0 -66 -47 -114t-114 -48q-65 0 -113.5 48.5t-48.5 113.5zM395 700q0 -204 79 -319t239 -115q132 0 230.5 104.5t98.5 321.5q0 141 -36.5 235.5t-109 142.5t-177.5 48q-87 0 -160 -45.5t-118.5 -139.5t-45.5 -233zM797 1634q0 66 48 114t114 48q68 0 114.5 -47.5 t46.5 -114.5q0 -66 -47 -114t-114 -48q-65 0 -113.5 48.5t-48.5 113.5z" />
<glyph unicode="&#xd8;" horiz-adv-x="1438" d="M57 674q0 224 88 391t242 255.5t348 88.5q46 0 88 -6l66 188l227 -69l-61 -183q98 -47 169 -132.5t109.5 -214t38.5 -292.5q0 -163 -51 -297t-142.5 -230t-216 -148t-266.5 -52q-62 0 -104 9l-68 -199l-229 72l67 194q-77 43 -133.5 102.5t-95.5 141.5t-57.5 176 t-18.5 205zM377 694q0 -237 92 -325l260 747q-56 0 -100 -10q-109 -26 -180.5 -131.5t-71.5 -280.5zM684 258h76q77 9 144.5 57.5t108 141.5t40.5 229q0 247 -103 340z" />
<glyph unicode="&#xd9;" horiz-adv-x="1378" d="M123 487v895h319v-876q0 -85 22 -143.5t76.5 -89.5t149.5 -31q91 0 145.5 27t79.5 89.5t25 165.5v858h315v-839q0 -285 -152 -427.5t-433 -142.5q-159 0 -267 40.5t-168.5 110.5t-86 161.5t-25.5 201.5zM351 1649l125 217l399 -225l-103 -182z" />
<glyph unicode="&#xda;" horiz-adv-x="1378" d="M123 487v895h319v-876q0 -85 22 -143.5t76.5 -89.5t149.5 -31q91 0 145.5 27t79.5 89.5t25 165.5v858h315v-839q0 -285 -152 -427.5t-433 -142.5q-159 0 -267 40.5t-168.5 110.5t-86 161.5t-25.5 201.5zM500 1641l399 223l121 -215l-420 -188z" />
<glyph unicode="&#xdb;" horiz-adv-x="1378" d="M123 487v895h319v-876q0 -85 22 -143.5t76.5 -89.5t149.5 -31q91 0 145.5 27t79.5 89.5t25 165.5v858h315v-839q0 -285 -152 -427.5t-433 -142.5q-159 0 -267 40.5t-168.5 110.5t-86 161.5t-25.5 201.5zM362 1657l326 172l330 -170l-88 -184l-242 123l-240 -123z" />
<glyph unicode="&#xdc;" horiz-adv-x="1378" d="M123 487v895h319v-876q0 -85 22 -143.5t76.5 -89.5t149.5 -31q91 0 145.5 27t79.5 89.5t25 165.5v858h315v-839q0 -285 -152 -427.5t-433 -142.5q-159 0 -267 40.5t-168.5 110.5t-86 161.5t-25.5 201.5zM295 1634q0 66 48 114t114 48q68 0 114.5 -47.5t46.5 -114.5 q0 -66 -47 -114t-114 -48q-65 0 -113.5 48.5t-48.5 113.5zM723 1634q0 66 48 114t114 48q68 0 114.5 -47.5t46.5 -114.5q0 -66 -47 -114t-114 -48q-65 0 -113.5 48.5t-48.5 113.5z" />
<glyph unicode="&#xdf;" horiz-adv-x="1264" d="M121 0v1004q0 176 69 290t185.5 166.5t259.5 52.5q129 0 231.5 -37.5t158.5 -110t56 -173.5q0 -87 -28.5 -140t-86.5 -106.5t-79 -79t-21 -73.5t63 -94t126.5 -88t110 -107t46.5 -172q0 -108 -55.5 -189t-153.5 -125.5t-225 -44.5q-138 0 -227 35l12 252q89 -47 191 -47 q133 0 133 90q0 50 -30 72.5t-124 83t-139 124.5t-45 169q0 80 26.5 133t79.5 110t76 92t23 87q0 47 -34.5 72.5t-94.5 25.5q-90 0 -141.5 -64t-51.5 -190v-1018h-311z" />
<glyph unicode="&#xe0;" horiz-adv-x="1077" d="M66 256q0 125 74 210.5t205 128t294 42.5v39q0 64 -41.5 94.5t-140.5 30.5q-69 0 -153.5 -21t-143.5 -53l-25 258q77 25 176 42t193 17q172 0 269.5 -41.5t138 -121.5t40.5 -201v-438q0 -139 9 -242h-293q0 102 8 154h-2q-36 -80 -121.5 -128.5t-190.5 -48.5 q-141 0 -218.5 76.5t-77.5 202.5zM248 1325l125 217l399 -225l-103 -182zM360 303q0 -39 27 -63.5t76 -24.5q52 0 91.5 27t62 73t22.5 95v28q-157 0 -218 -36t-61 -99z" />
<glyph unicode="&#xe1;" horiz-adv-x="1077" d="M66 256q0 125 74 210.5t205 128t294 42.5v39q0 64 -41.5 94.5t-140.5 30.5q-69 0 -153.5 -21t-143.5 -53l-25 258q77 25 176 42t193 17q172 0 269.5 -41.5t138 -121.5t40.5 -201v-438q0 -139 9 -242h-293q0 102 8 154h-2q-36 -80 -121.5 -128.5t-190.5 -48.5 q-141 0 -218.5 76.5t-77.5 202.5zM340 1317l399 223l121 -215l-420 -188zM360 303q0 -39 27 -63.5t76 -24.5q52 0 91.5 27t62 73t22.5 95v28q-157 0 -218 -36t-61 -99z" />
<glyph unicode="&#xe2;" horiz-adv-x="1077" d="M66 256q0 125 74 210.5t205 128t294 42.5v39q0 64 -41.5 94.5t-140.5 30.5q-69 0 -153.5 -21t-143.5 -53l-25 258q77 25 176 42t193 17q172 0 269.5 -41.5t138 -121.5t40.5 -201v-438q0 -139 9 -242h-293q0 102 8 154h-2q-36 -80 -121.5 -128.5t-190.5 -48.5 q-141 0 -218.5 76.5t-77.5 202.5zM217 1333l326 172l330 -170l-88 -184l-242 123l-240 -123zM360 303q0 -39 27 -63.5t76 -24.5q52 0 91.5 27t62 73t22.5 95v28q-157 0 -218 -36t-61 -99z" />
<glyph unicode="&#xe3;" horiz-adv-x="1077" d="M66 256q0 125 74 210.5t205 128t294 42.5v39q0 64 -41.5 94.5t-140.5 30.5q-69 0 -153.5 -21t-143.5 -53l-25 258q77 25 176 42t193 17q172 0 269.5 -41.5t138 -121.5t40.5 -201v-438q0 -139 9 -242h-293q0 102 8 154h-2q-36 -80 -121.5 -128.5t-190.5 -48.5 q-141 0 -218.5 76.5t-77.5 202.5zM165 1397q104 92 220 92q53 0 89.5 -13.5t84 -40.5t76 -38t67.5 -11q40 0 80 18.5t67 45.5l56 -207q-35 -32 -100 -60t-119 -28q-57 0 -92.5 12t-79.5 37t-75.5 38t-76.5 13q-38 0 -75.5 -18.5t-65.5 -46.5zM360 303q0 -39 27 -63.5 t76 -24.5q52 0 91.5 27t62 73t22.5 95v28q-157 0 -218 -36t-61 -99z" />
<glyph unicode="&#xe4;" horiz-adv-x="1077" d="M66 256q0 125 74 210.5t205 128t294 42.5v39q0 64 -41.5 94.5t-140.5 30.5q-69 0 -153.5 -21t-143.5 -53l-25 258q77 25 176 42t193 17q172 0 269.5 -41.5t138 -121.5t40.5 -201v-438q0 -139 9 -242h-293q0 102 8 154h-2q-36 -80 -121.5 -128.5t-190.5 -48.5 q-141 0 -218.5 76.5t-77.5 202.5zM164 1321q0 66 48 114t114 48q68 0 114.5 -47.5t46.5 -114.5q0 -66 -47 -114t-114 -48q-65 0 -113.5 48.5t-48.5 113.5zM360 303q0 -39 27 -63.5t76 -24.5q52 0 91.5 27t62 73t22.5 95v28q-157 0 -218 -36t-61 -99zM592 1321q0 66 48 114 t114 48q68 0 114.5 -47.5t46.5 -114.5q0 -66 -47 -114t-114 -48q-65 0 -113.5 48.5t-48.5 113.5z" />
<glyph unicode="&#xe5;" horiz-adv-x="1077" d="M66 256q0 125 74 210.5t205 128t294 42.5v39q0 64 -41.5 94.5t-140.5 30.5q-69 0 -153.5 -21t-143.5 -53l-25 258q77 25 176 42t193 17q172 0 269.5 -41.5t138 -121.5t40.5 -201v-438q0 -139 9 -242h-293q0 102 8 154h-2q-36 -80 -121.5 -128.5t-190.5 -48.5 q-141 0 -218.5 76.5t-77.5 202.5zM256 1372q0 114 80.5 190t197.5 76q78 0 141.5 -34.5t100.5 -96t37 -135.5t-37 -134.5t-101 -95t-141 -34.5t-140.5 34t-100.5 95t-37 135zM360 303q0 -39 27 -63.5t76 -24.5q52 0 91.5 27t62 73t22.5 95v28q-157 0 -218 -36t-61 -99z M432 1372q0 -43 30 -73t72 -30q43 0 73 30t30 73q0 45 -29.5 74.5t-73.5 29.5q-43 0 -72.5 -29.5t-29.5 -74.5z" />
<glyph unicode="&#xe6;" horiz-adv-x="1630" d="M66 256q0 125 74 210.5t205 128t294 42.5v39q0 64 -42 94.5t-140 30.5q-69 0 -153.5 -21t-143.5 -53l-25 258q77 25 175 42t192 17q227 0 334 -102h2q48 46 121.5 73t160.5 27q147 0 246.5 -61.5t147 -167.5t47.5 -244q0 -77 -11 -137h-606q2 -103 65.5 -158t186.5 -55 q158 0 301 64l27 -236q-171 -70 -377 -70q-152 0 -261 50.5t-167 142.5l-2 -4q-126 -189 -361 -189q-94 0 -159.5 35t-98 98t-32.5 146zM360 303q0 -40 27 -64t76 -24q52 0 91.5 27t62 73t22.5 95v28q-279 0 -279 -135zM946 639h309q0 56 -17 96t-49 60t-77 20 q-68 0 -113.5 -49t-52.5 -127z" />
<glyph unicode="&#xe7;" horiz-adv-x="856" d="M61 477q0 159 58 286.5t178.5 202t300.5 74.5q93 0 197 -26l-33 -271q-87 29 -160 29q-70 0 -118 -32t-72.5 -93t-24.5 -145q0 -119 53.5 -185.5t157.5 -66.5q99 0 172 37l25 -264q-111 -43 -267 -43q-231 0 -349 126t-118 371zM264 -401q117 73 117 176q0 55 -37 121 h283q40 -77 40 -150q0 -81 -59.5 -148t-196.5 -116z" />
<glyph unicode="&#xe8;" d="M61 498q0 159 58 282t167.5 192.5t264.5 69.5q148 0 247.5 -61t147 -167.5t47.5 -244.5q0 -55 -10 -137h-606q2 -103 65.5 -158t186.5 -55q159 0 299 64l28 -236q-170 -70 -376 -70q-519 0 -519 521zM252 1325l125 217l399 -225l-103 -182zM379 639h307q0 56 -17 96 t-49 60t-77 20q-67 0 -112.5 -49.5t-51.5 -126.5z" />
<glyph unicode="&#xe9;" d="M61 498q0 159 58 282t167.5 192.5t264.5 69.5q148 0 247.5 -61t147 -167.5t47.5 -244.5q0 -55 -10 -137h-606q2 -103 65.5 -158t186.5 -55q159 0 299 64l28 -236q-170 -70 -376 -70q-519 0 -519 521zM356 1317l399 223l121 -215l-420 -188zM379 639h307q0 56 -17 96 t-49 60t-77 20q-67 0 -112.5 -49.5t-51.5 -126.5z" />
<glyph unicode="&#xea;" d="M61 498q0 159 58 282t167.5 192.5t264.5 69.5q148 0 247.5 -61t147 -167.5t47.5 -244.5q0 -55 -10 -137h-606q2 -103 65.5 -158t186.5 -55q159 0 299 64l28 -236q-170 -70 -376 -70q-519 0 -519 521zM219 1333l326 172l330 -170l-88 -184l-242 123l-240 -123zM379 639 h307q0 56 -17 96t-49 60t-77 20q-67 0 -112.5 -49.5t-51.5 -126.5z" />
<glyph unicode="&#xeb;" d="M61 498q0 159 58 282t167.5 192.5t264.5 69.5q148 0 247.5 -61t147 -167.5t47.5 -244.5q0 -55 -10 -137h-606q2 -103 65.5 -158t186.5 -55q159 0 299 64l28 -236q-170 -70 -376 -70q-519 0 -519 521zM176 1321q0 66 48 114t114 48q68 0 114.5 -47.5t46.5 -114.5 q0 -66 -47 -114t-114 -48q-65 0 -113.5 48.5t-48.5 113.5zM379 639h307q0 56 -17 96t-49 60t-77 20q-67 0 -112.5 -49.5t-51.5 -126.5zM604 1321q0 66 48 114t114 48q68 0 114.5 -47.5t46.5 -114.5q0 -66 -47 -114t-114 -48q-65 0 -113.5 48.5t-48.5 113.5z" />
<glyph unicode="&#xec;" horiz-adv-x="555" d="M0 1325l125 217l399 -225l-102 -182zM123 0v1018h311v-1018h-311z" />
<glyph unicode="&#xed;" horiz-adv-x="555" d="M33 1317l399 223l121 -215l-420 -188zM123 0v1018h311v-1018h-311z" />
<glyph unicode="&#xee;" horiz-adv-x="555" d="M-49 1333l323 172l332 -170l-90 -184l-242 123l-239 -123zM123 0v1018h311v-1018h-311z" />
<glyph unicode="&#xef;" horiz-adv-x="555" d="M-94 1321q0 67 46.5 114.5t115.5 47.5q35 0 63.5 -13t50 -34.5t34.5 -51t13 -63.5q0 -67 -47.5 -114.5t-113.5 -47.5q-68 0 -115 48t-47 114zM123 0v1018h311v-1018h-311zM334 1321q0 67 47.5 114.5t114.5 47.5q35 0 63.5 -13t50 -34.5t34.5 -51t13 -63.5 q0 -67 -47.5 -114.5t-113.5 -47.5t-114 48t-48 114z" />
<glyph unicode="&#xf1;" horiz-adv-x="1163" d="M121 0v1018h291q0 -102 -13 -160h2q51 84 136 133t202 49q160 0 230.5 -87.5t70.5 -233.5v-719h-311v647q0 67 -20.5 99t-73.5 32q-54 0 -101 -39.5t-74.5 -105t-27.5 -139.5v-494h-311zM190 1397q104 92 220 92q53 0 89.5 -13.5t84 -40.5t76 -38t67.5 -11q40 0 80 18.5 t67 45.5l56 -207q-35 -32 -100 -60t-119 -28q-57 0 -92.5 12t-79.5 37t-75.5 38t-76.5 13q-38 0 -75.5 -18.5t-65.5 -46.5z" />
<glyph unicode="&#xf2;" horiz-adv-x="1143" d="M57 485q0 122 40.5 226t112.5 176.5t171.5 112.5t214.5 40q234 0 360.5 -129t126.5 -381q0 -123 -40 -224t-112.5 -175.5t-171 -114t-212.5 -39.5q-231 0 -360.5 123.5t-129.5 384.5zM279 1325l125 217l399 -225l-103 -182zM381 520q0 -139 46 -205.5t142 -66.5 q85 0 138 69t53 195q0 133 -44.5 197.5t-140.5 64.5q-80 0 -137 -64t-57 -190z" />
<glyph unicode="&#xf3;" horiz-adv-x="1143" d="M57 485q0 122 40.5 226t112.5 176.5t171.5 112.5t214.5 40q234 0 360.5 -129t126.5 -381q0 -123 -40 -224t-112.5 -175.5t-171 -114t-212.5 -39.5q-231 0 -360.5 123.5t-129.5 384.5zM381 520q0 -139 46 -205.5t142 -66.5q85 0 138 69t53 195q0 133 -44.5 197.5 t-140.5 64.5q-80 0 -137 -64t-57 -190zM381 1317l399 223l121 -215l-420 -188z" />
<glyph unicode="&#xf4;" horiz-adv-x="1143" d="M57 485q0 122 40.5 226t112.5 176.5t171.5 112.5t214.5 40q234 0 360.5 -129t126.5 -381q0 -123 -40 -224t-112.5 -175.5t-171 -114t-212.5 -39.5q-231 0 -360.5 123.5t-129.5 384.5zM258 1333l326 172l330 -170l-88 -184l-242 123l-240 -123zM381 520q0 -139 46 -205.5 t142 -66.5q85 0 138 69t53 195q0 133 -44.5 197.5t-140.5 64.5q-80 0 -137 -64t-57 -190z" />
<glyph unicode="&#xf5;" horiz-adv-x="1143" d="M57 485q0 122 40.5 226t112.5 176.5t171.5 112.5t214.5 40q234 0 360.5 -129t126.5 -381q0 -123 -40 -224t-112.5 -175.5t-171 -114t-212.5 -39.5q-231 0 -360.5 123.5t-129.5 384.5zM217 1397q104 92 220 92q53 0 89.5 -13.5t84 -40.5t76 -38t67.5 -11q40 0 80 18.5 t67 45.5l56 -207q-35 -32 -100 -60t-119 -28q-57 0 -92.5 12t-79.5 37t-75.5 38t-76.5 13q-38 0 -75.5 -18.5t-65.5 -46.5zM381 520q0 -139 46 -205.5t142 -66.5q85 0 138 69t53 195q0 133 -44.5 197.5t-140.5 64.5q-80 0 -137 -64t-57 -190z" />
<glyph unicode="&#xf6;" horiz-adv-x="1143" d="M57 485q0 122 40.5 226t112.5 176.5t171.5 112.5t214.5 40q234 0 360.5 -129t126.5 -381q0 -123 -40 -224t-112.5 -175.5t-171 -114t-212.5 -39.5q-231 0 -360.5 123.5t-129.5 384.5zM209 1321q0 66 48 114t114 48q68 0 114.5 -47.5t46.5 -114.5q0 -66 -47 -114t-114 -48 q-65 0 -113.5 48.5t-48.5 113.5zM381 520q0 -139 46 -205.5t142 -66.5q85 0 138 69t53 195q0 133 -44.5 197.5t-140.5 64.5q-80 0 -137 -64t-57 -190zM637 1321q0 66 48 114t114 48q68 0 114.5 -47.5t46.5 -114.5q0 -66 -47 -114t-114 -48q-65 0 -113.5 48.5t-48.5 113.5z " />
<glyph unicode="&#xf7;" horiz-adv-x="1262" d="M100 397v262h1061v-262h-1061zM446 117q0 77 53.5 130.5t131.5 53.5q50 0 91.5 -24.5t67 -66.5t25.5 -93q0 -76 -54.5 -130.5t-129.5 -54.5q-49 0 -92 25t-68 68t-25 92zM446 938q0 77 53.5 130.5t131.5 53.5q50 0 91.5 -24.5t67 -66.5t25.5 -93q0 -75 -54.5 -129.5 t-129.5 -54.5q-77 0 -131 54t-54 130z" />
<glyph unicode="&#xf8;" horiz-adv-x="1130" d="M55 494q0 125 40 229t109.5 174t167.5 108.5t212 38.5q18 0 28 -1t25 -2t33 -3l71 189l174 -51l-73 -185q227 -116 227 -463q0 -120 -39 -224t-110.5 -178.5t-167 -113.5t-209.5 -39q-45 0 -92 9l-80 -203l-172 53l77 201q-107 59 -164 176t-57 285zM344 510 q0 -53 11.5 -102t37.5 -82l178 462q-32 0 -51 -2q-76 -15 -126 -84t-50 -192zM547 233q18 -2 59 -2q78 15 127 86.5t49 200.5q0 127 -51 193z" />
<glyph unicode="&#xf9;" horiz-adv-x="1159" d="M119 299v719h313v-647q0 -65 21.5 -98t72.5 -33q53 0 100 39.5t74 106t27 138.5v494h313v-1018h-290q0 101 12 160h-4q-50 -84 -135.5 -133.5t-200.5 -49.5q-108 0 -176 42t-97.5 113.5t-29.5 166.5zM260 1325l125 217l399 -225l-103 -182z" />
<glyph unicode="&#xfa;" horiz-adv-x="1159" d="M119 299v719h313v-647q0 -65 21.5 -98t72.5 -33q53 0 100 39.5t74 106t27 138.5v494h313v-1018h-290q0 101 12 160h-4q-50 -84 -135.5 -133.5t-200.5 -49.5q-108 0 -176 42t-97.5 113.5t-29.5 166.5zM373 1317l399 223l121 -215l-420 -188z" />
<glyph unicode="&#xfb;" horiz-adv-x="1159" d="M119 299v719h313v-647q0 -65 21.5 -98t72.5 -33q53 0 100 39.5t74 106t27 138.5v494h313v-1018h-290q0 101 12 160h-4q-50 -84 -135.5 -133.5t-200.5 -49.5q-108 0 -176 42t-97.5 113.5t-29.5 166.5zM247 1333l326 172l330 -170l-88 -184l-242 123l-240 -123z" />
<glyph unicode="&#xfc;" horiz-adv-x="1159" d="M119 299v719h313v-647q0 -65 21.5 -98t72.5 -33q53 0 100 39.5t74 106t27 138.5v494h313v-1018h-290q0 101 12 160h-4q-50 -84 -135.5 -133.5t-200.5 -49.5q-108 0 -176 42t-97.5 113.5t-29.5 166.5zM189 1321q0 66 48 114t114 48q68 0 114.5 -47.5t46.5 -114.5 q0 -66 -47 -114t-114 -48q-65 0 -113.5 48.5t-48.5 113.5zM617 1321q0 66 48 114t114 48q68 0 114.5 -47.5t46.5 -114.5q0 -66 -47 -114t-114 -48q-65 0 -113.5 48.5t-48.5 113.5z" />
<glyph unicode="&#xff;" horiz-adv-x="1057" d="M6 1018h344l103 -297q21 -60 42.5 -138.5t39.5 -158.5h2q37 157 96 328l92 266h334l-416 -1106q-61 -161 -123.5 -250t-144.5 -125.5t-205 -36.5q-74 0 -152 19l19 266q77 -25 145 -25q57 0 96.5 33.5t67.5 118.5l29 88zM148 1321q0 66 48 114t114 48q68 0 114.5 -47.5 t46.5 -114.5q0 -66 -47 -114t-114 -48q-65 0 -113.5 48.5t-48.5 113.5zM576 1321q0 66 48 114t114 48q68 0 114.5 -47.5t46.5 -114.5q0 -66 -47 -114t-114 -48q-65 0 -113.5 48.5t-48.5 113.5z" />
<glyph unicode="&#x152;" horiz-adv-x="1663" d="M57 674q0 161 50 296t141 230t210 146t257 51q66 0 157 -7.5t119 -7.5h574v-268h-459v-274h436v-260h-436v-306h459v-274h-559q-71 0 -175.5 -9t-152.5 -9q-154 0 -271.5 49.5t-195 140.5t-116 218.5t-38.5 283.5zM389 698q0 -134 35.5 -232t107 -149t177.5 -51 q52 0 94 10v828q-41 8 -92 8q-93 0 -166 -50.5t-114.5 -144t-41.5 -219.5z" />
<glyph unicode="&#x153;" horiz-adv-x="1743" d="M57 498q0 161 68 285t187.5 190.5t269.5 66.5q102 0 190 -31t143 -91q122 124 316 124q148 0 247.5 -61t147 -167.5t47.5 -244.5q0 -76 -10 -137h-606q2 -103 65.5 -158t186.5 -55q161 0 301 64l26 -236q-170 -70 -376 -70q-253 0 -381 140q-54 -62 -144.5 -101 t-197.5 -39q-153 0 -260.5 55.5t-163.5 172.5t-56 293zM362 510q0 -136 46 -203t149 -67q91 0 144 70.5t53 201.5q0 138 -45 203t-148 65q-83 0 -141 -66t-58 -204zM1059 639h309q0 56 -16.5 96t-49.5 60t-79 20q-67 0 -112.5 -49.5t-51.5 -126.5z" />
<glyph unicode="&#x178;" horiz-adv-x="1184" d="M-4 1382h348l158 -352q53 -117 88 -221h4q30 87 106 250l150 323h336l-438 -899v-483h-320v481zM203 1634q0 66 48 114t114 48q68 0 114.5 -47.5t46.5 -114.5q0 -66 -47 -114t-114 -48q-65 0 -113.5 48.5t-48.5 113.5zM631 1634q0 66 48 114t114 48q68 0 114.5 -47.5 t46.5 -114.5q0 -66 -47 -114t-114 -48q-65 0 -113.5 48.5t-48.5 113.5z" />
<glyph unicode="&#x2c6;" horiz-adv-x="864" d="M104 1333l326 172l330 -170l-88 -184l-242 123l-240 -123z" />
<glyph unicode="&#x2dc;" horiz-adv-x="918" d="M102 1397q104 92 220 92q53 0 89.5 -13.5t84 -40.5t76 -38t67.5 -11q40 0 80 18.5t67 45.5l56 -207q-35 -32 -100 -60t-119 -28q-57 0 -92.5 12t-79.5 37t-75.5 38t-76.5 13q-38 0 -75.5 -18.5t-65.5 -46.5z" />
<glyph unicode="&#x2000;" horiz-adv-x="933" />
<glyph unicode="&#x2001;" horiz-adv-x="1866" />
<glyph unicode="&#x2002;" horiz-adv-x="933" />
<glyph unicode="&#x2003;" horiz-adv-x="1866" />
<glyph unicode="&#x2004;" horiz-adv-x="622" />
<glyph unicode="&#x2005;" horiz-adv-x="466" />
<glyph unicode="&#x2006;" horiz-adv-x="311" />
<glyph unicode="&#x2007;" horiz-adv-x="311" />
<glyph unicode="&#x2008;" horiz-adv-x="233" />
<glyph unicode="&#x2009;" horiz-adv-x="373" />
<glyph unicode="&#x200a;" horiz-adv-x="103" />
<glyph unicode="&#x2010;" horiz-adv-x="690" d="M86 399v250h516v-250h-516z" />
<glyph unicode="&#x2011;" horiz-adv-x="690" d="M86 399v250h516v-250h-516z" />
<glyph unicode="&#x2012;" horiz-adv-x="690" d="M86 399v250h516v-250h-516z" />
<glyph unicode="&#x2013;" horiz-adv-x="1024" d="M0 455v274h1024v-274h-1024z" />
<glyph unicode="&#x2014;" horiz-adv-x="2048" d="M0 455v274h2048v-274h-2048z" />
<glyph unicode="&#x2018;" horiz-adv-x="578" d="M90 1057q0 111 71 241t220 256l127 -112q-125 -134 -125 -221q0 -56 45 -107q41 -47 41 -113q0 -71 -50.5 -124.5t-133.5 -53.5q-84 0 -139.5 65.5t-55.5 168.5z" />
<glyph unicode="&#x2019;" horiz-adv-x="578" d="M68 918q68 73 97.5 124.5t29.5 96.5q0 50 -45 106q-41 47 -41 113q0 46 21.5 86.5t63.5 66t97 25.5q86 0 140 -64t54 -169q0 -54 -15.5 -111t-51.5 -124t-89.5 -132t-133.5 -133z" />
<glyph unicode="&#x201a;" horiz-adv-x="578" d="M68 -266q67 72 97 125t30 98q0 53 -45 104q-41 47 -41 113q0 46 21.5 86.5t63.5 66t97 25.5q86 0 140 -64t54 -169q0 -111 -70.5 -242t-219.5 -256z" />
<glyph unicode="&#x201c;" d="M90 1057q0 111 71 241t220 256l127 -112q-125 -134 -125 -221q0 -56 45 -107q41 -47 41 -113q0 -71 -50.5 -124.5t-133.5 -53.5q-84 0 -139.5 65.5t-55.5 168.5zM578 1057q0 111 70 240.5t220 256.5l127 -112q-68 -72 -97.5 -125t-29.5 -96q0 -51 45 -107q41 -47 41 -113 q0 -70 -50 -124t-132 -54q-85 0 -139.5 64.5t-54.5 169.5z" />
<glyph unicode="&#x201d;" d="M68 918q68 73 97.5 124.5t29.5 96.5q0 50 -45 106q-41 47 -41 113q0 46 21.5 86.5t63.5 66t97 25.5q86 0 140 -64t54 -169q0 -54 -15.5 -111t-51.5 -124t-89.5 -132t-133.5 -133zM553 918q68 73 97.5 124.5t29.5 96.5q0 52 -45 106q-41 47 -41 113q0 72 50 125t134 53 q85 0 139 -64t54 -169q0 -70 -30 -153.5t-94.5 -171.5t-166.5 -175z" />
<glyph unicode="&#x201e;" d="M68 -266q67 72 97 125t30 98q0 53 -45 104q-41 47 -41 113q0 46 21.5 86.5t63.5 66t97 25.5q86 0 140 -64t54 -169q0 -111 -70.5 -242t-219.5 -256zM553 -266q67 72 97 125t30 98q0 54 -45 104q-41 47 -41 113q0 72 50 125t134 53q85 0 139 -64t54 -167q0 -71 -30 -153.5 t-94.5 -171t-166.5 -175.5z" />
<glyph unicode="&#x2022;" horiz-adv-x="874" d="M94 608q0 90 45.5 169.5t124 125t170.5 45.5q72 0 133 -26.5t107.5 -73t73 -107.5t26.5 -133q0 -91 -45.5 -170.5t-124.5 -125.5t-170 -46q-93 0 -171 46t-123.5 125.5t-45.5 170.5z" />
<glyph unicode="&#x2026;" horiz-adv-x="1561" d="M90 160q0 75 53.5 128.5t130.5 53.5t131 -53t54 -129q0 -78 -54.5 -131.5t-130.5 -53.5t-130 54t-54 131zM592 160q0 76 54 129t130 53q51 0 93 -24.5t67 -66.5t25 -91q0 -79 -54 -132t-131 -53q-75 0 -129.5 53.5t-54.5 131.5zM1096 160q0 75 53.5 128.5t130.5 53.5 q50 0 91.5 -24t67 -66.5t25.5 -91.5q0 -77 -55 -131t-129 -54q-76 0 -130 54t-54 131z" />
<glyph unicode="&#x202f;" horiz-adv-x="373" />
<glyph unicode="&#x2039;" horiz-adv-x="639" d="M66 510l231 418l242 -111l-177 -305l179 -301l-250 -113z" />
<glyph unicode="&#x203a;" horiz-adv-x="639" d="M96 815l252 113l225 -412l-231 -418l-242 111l176 305z" />
<glyph unicode="&#x205f;" horiz-adv-x="466" />
<glyph unicode="&#x2122;" horiz-adv-x="1399" d="M39 1194v188h471v-188h-125v-387h-215v387h-131zM514 807l94 575h252l55 -208l15 -78l12 73l51 213h256l99 -575h-228l-30 213l-11 88l-14 -84l-51 -217h-195l-51 223l-14 78l-4 -74l-31 -227h-205z" />
<glyph unicode="&#x25fc;" horiz-adv-x="1020" d="M0 0v1020h1020v-1020h-1020z" />
</font>
</defs>
</svg>
